<?xml version="1.0" encoding="UTF-8" standalone="no"?>
<svg
   xmlns:dc="http://purl.org/dc/elements/1.1/"
   xmlns:cc="http://creativecommons.org/ns#"
   xmlns:rdf="http://www.w3.org/1999/02/22-rdf-syntax-ns#"
   xmlns:svg="http://www.w3.org/2000/svg"
   xmlns="http://www.w3.org/2000/svg"
   xmlns:sodipodi="http://sodipodi.sourceforge.net/DTD/sodipodi-0.dtd"
   xmlns:inkscape="http://www.inkscape.org/namespaces/inkscape"
   version="1.1"
   x="0px"
   y="0px"
   viewBox="0 0 800 1000"
   enable-background="new 0 0 800 800"
   xml:space="preserve"
   id="svg22"
   sodipodi:docname="noun_Robot_1626407.svg"
   inkscape:version="0.92.1 r15371"><metadata
     id="metadata28"><rdf:RDF><cc:Work
         rdf:about=""><dc:format>image/svg+xml</dc:format><dc:type
           rdf:resource="http://purl.org/dc/dcmitype/StillImage" /></cc:Work></rdf:RDF></metadata><defs
     id="defs26" /><sodipodi:namedview
     pagecolor="#ffffff"
     bordercolor="#666666"
     borderopacity="1"
     objecttolerance="10"
     gridtolerance="10"
     guidetolerance="10"
     inkscape:pageopacity="0"
     inkscape:pageshadow="2"
     inkscape:window-width="1301"
     inkscape:window-height="862"
     id="namedview24"
     showgrid="false"
     inkscape:zoom="0.472"
     inkscape:cx="216.63783"
     inkscape:cy="401.3039"
     inkscape:window-x="0"
     inkscape:window-y="0"
     inkscape:window-maximized="0"
     inkscape:current-layer="svg22" /><g
     id="g16"
     style="fill:#ffffff;opacity:0.6"><path
       d="M472.558,200.376c7.135,3.612,14.064,7.798,20.596,12.446c3.518,2.502,7.566,3.705,11.578,3.705   c6.252,0,12.412-2.924,16.313-8.407c6.404-9,4.299-21.487-4.701-27.891c-8.155-5.802-16.809-11.031-25.721-15.542   c-9.857-4.99-21.888-1.043-26.877,8.812C458.757,183.355,462.702,195.388,472.558,200.376z"
       id="path2"
       style="fill:#ffffff" /><circle
       cx="332.945"
       cy="287.803"
       r="29.555"
       id="circle4"
       style="fill:#ffffff" /><circle
       cx="467.055"
       cy="287.803"
       r="29.555"
       id="circle6"
       style="fill:#ffffff" /><path
       d="M685.702,472.687c-20.738,0-37.609-16.871-37.609-37.609c0-11.046-8.954-20-20-20s-20,8.954-20,20   c0,14.152,3.826,27.42,10.471,38.856l-49.283,49.282V414.03c1.479-1.29,2.926-2.598,4.303-3.946   c14.724-14.415,23.551-31.791,26.343-51.798c26.602-8.158,46.001-32.947,46.001-62.187c0-35.859-29.174-65.033-65.034-65.033   c-4.638,0-9.247,0.505-13.746,1.477c-2.135-3.188-4.361-6.33-6.69-9.417c-6.652-8.817-19.193-10.571-28.012-3.919   c-8.817,6.653-10.572,19.194-3.919,28.012c21.175,28.063,32.367,61.537,32.367,96.803c0,15.146-5.002,27.404-15.292,37.479   c-23.63,23.133-74.082,35.072-142.063,33.633c-1.592-0.033-2.787-0.057-3.538-0.057s-1.946,0.023-3.537,0.057   c-67.981,1.442-118.434-10.5-142.063-33.633c-10.29-10.074-15.292-22.333-15.292-37.479c0-88.716,72.177-160.893,160.893-160.893   c8.608,0,17.243,0.684,25.666,2.033c10.907,1.75,21.165-5.678,22.911-16.584c1.748-10.907-5.678-21.165-16.584-22.912   c-3.967-0.636-7.97-1.152-11.993-1.55v-26.74c17.138-7.674,29.112-24.878,29.112-44.837c0-27.081-22.031-49.112-49.112-49.112   s-49.112,22.032-49.112,49.112c0,19.959,11.975,37.163,29.112,44.837v26.746c-61.245,6.082-114.482,39.784-147.053,88.439   c-4.529-0.984-9.17-1.496-13.84-1.496c-35.859,0-65.033,29.174-65.033,65.033c0,29.239,19.399,54.028,46,62.187   c2.792,20.007,11.619,37.383,26.343,51.798c1.378,1.349,2.824,2.657,4.303,3.947v109.185l-49.283-49.282   c6.645-11.437,10.471-24.704,10.471-38.856c0-11.046-8.954-20-20-20s-20,8.954-20,20c0,20.738-16.871,37.609-37.609,37.609   c-11.046,0-20,8.954-20,20s8.954,20,20,20c14.151,0,27.418-3.826,38.854-10.47l77.568,77.567v118.508   c0,7.176,3.732,13.867,9.963,17.429c6.212,3.55,13.731,3.576,19.903-0.03c1.047-0.563,16.7-8.771,47.667-15.568   c7.941,43.429,46.059,76.45,91.747,76.45s83.806-33.021,91.747-76.451c30.957,6.797,46.609,15.001,47.666,15.568   c3.088,1.804,6.512,2.7,9.941,2.7c3.427,0,6.858-0.895,9.963-2.669c6.23-3.562,9.963-10.253,9.963-17.429V579.784l77.568-77.567   c11.436,6.644,24.702,10.47,38.854,10.47c11.046,0,20-8.954,20-20S696.748,472.687,685.702,472.687z M400,63.428   c5.024,0,9.112,4.088,9.112,9.112c0,5.024-4.088,9.111-9.112,9.111s-9.112-4.087-9.112-9.111   C390.888,67.516,394.976,63.428,400,63.428z M270.72,512.687H529.28v65H270.72V512.687z M605.927,296.1   c0,6.876-2.788,13.112-7.291,17.642c-2.152-14.34-5.835-28.312-10.998-41.744C598.175,274.95,605.927,284.634,605.927,296.1z    M212.481,271.963c-5.133,13.314-8.896,27.302-11.096,41.799c-4.516-4.531-7.312-10.776-7.312-17.663   C194.074,284.59,201.885,274.876,212.481,271.963z M385.639,455.251c3.837-0.001,7.735-0.043,11.674-0.127   c1.21-0.025,2.116-0.047,2.688-0.047s1.479,0.021,2.688,0.047c51.388,1.095,94.139-4.959,126.593-17.688v35.25H270.72v-35.233   C300.681,449.201,339.429,455.251,385.639,455.251z M400,736.572c-25.8,0-47.37-18.438-52.237-42.829   c15.338-1.678,32.732-2.737,52.237-2.737c19.504,0,36.899,1.06,52.235,2.737C447.368,718.134,425.8,736.572,400,736.572z    M400,651.006c-60.657,0-103.438,9.461-129.28,17.75v-51.069H529.28v51.069C503.438,660.467,460.658,651.006,400,651.006z"
       id="path8"
       style="fill:#ffffff" /><path
       d="M326.728,525.188c-5.26,0-10.42,2.13-14.14,5.859c-3.72,3.721-5.86,8.87-5.86,14.141c0,5.26,2.141,10.42,5.86,14.14   s8.88,5.86,14.14,5.86c5.27,0,10.42-2.141,14.141-5.86c3.729-3.72,5.859-8.88,5.859-14.14c0-5.271-2.13-10.42-5.859-14.141   C337.147,527.318,331.997,525.188,326.728,525.188z"
       id="path10"
       style="fill:#ffffff" /><path
       d="M399.997,525.188c-5.26,0-10.42,2.13-14.139,5.859c-3.721,3.721-5.861,8.87-5.861,14.141c0,5.26,2.141,10.42,5.861,14.14   c3.719,3.72,8.879,5.86,14.139,5.86c5.271,0,10.42-2.141,14.141-5.86c3.73-3.72,5.859-8.88,5.859-14.14   c0-5.271-2.129-10.42-5.859-14.141C410.417,527.318,405.268,525.188,399.997,525.188z"
       id="path12"
       style="fill:#ffffff" /><path
       d="M487.407,531.048c-3.72-3.729-8.869-5.859-14.14-5.859s-10.42,2.13-14.14,5.859c-3.721,3.721-5.86,8.87-5.86,14.141   c0,5.26,2.14,10.42,5.86,14.14c3.72,3.72,8.88,5.86,14.14,5.86c5.261,0,10.42-2.141,14.14-5.86c3.73-3.72,5.86-8.88,5.86-14.14   C493.268,539.918,491.138,534.769,487.407,531.048z"
       id="path14"
       style="fill:#ffffff" /></g><text
     x="150.88986"
     y="867.43335"
     font-size="5px"
     font-weight="bold"
     id="text18"
     style="font-weight:bold;font-size:25px;font-family:'Helvetica Neue', Helvetica, Arial-Unicode, Arial, Sans-serif;fill:#ffffff;stroke-width:5;fill-opacity:1;opacity:0.6;">Created by abderraouf omara</text>
<text
     x="150.88986"
     y="892.43335"
     font-size="5px"
     font-weight="bold"
     id="text20"
     style="font-weight:bold;font-size:25px;font-family:'Helvetica Neue', Helvetica, Arial-Unicode, Arial, Sans-serif;fill:#ffffff;stroke-width:5;fill-opacity:1;opacity:0.6;">from the Noun Project</text>
</svg>